<svg xmlns="http://www.w3.org/2000/svg" width="440" height="304" viewBox="0 0 440 304" version="1.1">
	<path d="M 322.435 35.852 C 320.749 36.894, 317.891 39.612, 316.085 41.893 L 312.801 46.039 319.369 43.655 C 327.704 40.630, 331.211 38.339, 330.803 36.187 C 330.348 33.790, 326.051 33.618, 322.435 35.852 M 249.455 45.429 C 247.592 46.809, 247.583 46.962, 249.250 48.653 C 250.903 50.330, 251.095 50.333, 252.714 48.714 C 254.243 47.186, 254.265 46.837, 252.919 45.490 C 251.596 44.168, 251.166 44.160, 249.455 45.429 M 152 46.165 C 139.936 47.299, 127.407 50.253, 121.095 53.452 C 115.940 56.064, 112.975 59.422, 110.416 65.548 C 108.632 69.816, 110.490 69.943, 89.500 64.108 C 63.771 56.956, 48.144 55.283, 37.257 58.516 C 22.444 62.915, 23.510 77.136, 39.942 94.335 C 49.767 104.618, 60.742 112.770, 80.861 124.728 C 90.449 130.427, 97.535 135.290, 97.978 136.476 C 98.395 137.589, 99.065 141.650, 99.468 145.500 C 101.080 160.912, 108.247 181.920, 116.796 196.292 C 130.650 219.582, 157.938 238.317, 184.640 242.872 C 207.543 246.778, 225.258 244.442, 240.193 235.544 L 246.049 232.056 274.275 248.187 C 328.776 279.335, 341.578 284.426, 365.500 284.466 C 376.003 284.483, 378.156 284.190, 382.757 282.116 C 397.507 275.470, 397.649 265.551, 383.267 246.500 C 375.237 235.864, 362.660 222.614, 349.626 211.061 L 338.978 201.622 344.682 198.561 C 361.584 189.491, 372.008 171.310, 369.307 155.608 C 366.096 136.945, 353.318 125.840, 330.683 122.038 L 320.500 120.328 320.808 114.414 C 321.023 110.292, 321.629 108.117, 322.808 107.235 C 323.739 106.539, 326.525 104.511, 329 102.728 C 331.757 100.741, 334.416 97.642, 335.864 94.726 C 338.994 88.425, 337.707 84.592, 331.874 82.844 C 329.736 82.204, 328.251 81.414, 328.574 81.090 C 328.897 80.765, 334.637 80.246, 341.330 79.936 C 351.843 79.449, 354.193 79.015, 358.590 76.750 C 365.724 73.076, 370 67.965, 370 63.113 C 370 57.997, 366.562 53.059, 360.992 50.172 C 354.354 46.732, 346.564 47.622, 325 54.281 C 300.126 61.962, 301.688 61.698, 302.481 58.088 C 303.407 53.873, 300.642 48.532, 296.522 46.577 C 292.192 44.523, 280.662 44.521, 272.644 46.573 C 269.265 47.438, 263.125 49.759, 259 51.731 L 251.500 55.317 243.500 53.567 C 208.458 45.898, 179.639 43.567, 152 46.165 M 155.500 51.984 C 133.670 53.972, 120 59.761, 120 67.017 C 120 71.152, 125.415 78.300, 132.102 82.990 C 143.314 90.856, 153.307 92.432, 173.500 89.522 C 192.137 86.837, 212.405 79.005, 236.300 65.255 C 240.590 62.787, 243.958 60.625, 243.784 60.450 C 243.610 60.276, 237.361 59.006, 229.897 57.627 C 203.166 52.689, 172.933 50.396, 155.500 51.984 M 41.582 63.048 C 38.445 63.580, 35.742 64.804, 34.120 66.426 C 31.693 68.852, 31.633 69.180, 32.813 73.589 C 33.492 76.131, 35.336 80.075, 36.910 82.355 C 39.977 86.796, 49.960 96.853, 56.500 102.090 C 63.540 107.726, 95.444 128, 97.274 128 C 97.508 128, 97.990 123.612, 98.345 118.250 C 99.095 106.934, 101.112 94.795, 103.978 84.348 C 105.090 80.294, 106 76.588, 106 76.111 C 106 74.767, 95.835 71.294, 80.942 67.551 C 68.766 64.490, 64.569 63.803, 50.500 62.566 C 48.300 62.372, 44.287 62.589, 41.582 63.048 M 110.670 81.750 C 96.355 129.097, 106.461 179.887, 136.350 210.819 C 155.226 230.353, 177.014 239.428, 205 239.413 C 218.725 239.405, 222.623 238.593, 233.920 233.390 L 241.340 229.973 225.420 220.849 C 192.908 202.215, 180.324 187.809, 186.418 176.200 C 188.638 171.970, 195.053 166.296, 200.164 164.041 C 206.917 161.061, 223.424 159.643, 243 160.362 C 263.752 161.124, 277.657 163.773, 292.675 169.826 L 297.850 171.912 302.522 160.841 C 308.127 147.563, 312.769 129.853, 313.651 118.383 L 314.295 110.006 308.409 112.031 C 284.715 120.183, 248.358 121.099, 209.539 114.523 C 165.063 106.989, 128.286 92.106, 117.525 77.288 C 115.861 74.997, 114.233 73.095, 113.908 73.061 C 113.582 73.027, 112.125 76.938, 110.670 81.750 M 350.250 86.706 C 349.012 86.944, 348.014 87.445, 348.031 87.820 C 348.080 88.883, 366.389 97, 368.739 97 C 371.847 97, 373.936 95.988, 375.024 93.955 C 377.684 88.985, 372.162 85.950, 360.800 86.136 C 356.235 86.211, 351.488 86.467, 350.250 86.706 M 342.565 96.928 C 339.350 100.481, 343.163 105.167, 347.358 102.820 C 350.324 101.160, 348.825 95, 345.455 95 C 344.825 95, 343.525 95.868, 342.565 96.928 M 320.522 127.250 C 317.871 135.228, 315.320 144.986, 315.768 145.434 C 316.079 145.746, 320.548 146, 325.699 146 C 336.398 146, 340.355 147.257, 344.257 151.893 C 349.359 157.956, 349.087 167.754, 343.596 175.722 C 341.077 179.377, 338.489 181.463, 332.553 184.625 L 324.799 188.755 329.543 192.378 C 332.153 194.370, 335.278 196, 336.489 196 C 339.517 196, 349.711 189.217, 354.215 184.205 C 366.605 170.419, 367.199 151.591, 355.621 139.678 C 349.823 133.712, 343.789 130.376, 334.504 128.001 C 325.511 125.701, 321.115 125.465, 320.522 127.250 M 314.500 151.964 C 313.158 152.526, 311.042 156.452, 308.071 163.889 C 305.636 169.987, 303.836 175.126, 304.071 175.308 C 304.307 175.491, 307.565 177.545, 311.310 179.874 L 318.120 184.107 323.441 182.560 C 334.803 179.257, 342.469 171.126, 342.490 162.355 C 342.501 157.595, 340.241 154.461, 335.282 152.362 C 331.757 150.870, 317.753 150.602, 314.500 151.964 M 206.059 167.696 C 202.293 168.849, 199.136 170.790, 195.809 173.997 C 191.659 177.997, 191.001 179.172, 191.007 182.566 C 191.021 191.111, 197.414 196.507, 231.180 216.471 C 268.835 238.736, 305.331 259.630, 315.498 264.743 C 336.827 275.471, 352.093 279.552, 368.028 278.785 C 383.694 278.030, 390.952 273.037, 388.133 264.952 C 381.644 246.338, 326.939 193.515, 299.464 179.335 C 280.749 169.676, 267.101 166.940, 235 166.414 C 215.139 166.088, 210.657 166.287, 206.059 167.696 M 195 271.061 C 160.041 272.059, 128.150 276.235, 121.323 280.708 C 117.788 283.024, 118.364 285.835, 122.750 287.674 C 134.118 292.438, 177.095 294.893, 218.079 293.120 C 268.799 290.925, 296 286.347, 296 280.005 C 296 275.806, 282.365 272.550, 258.369 271.019 C 241.324 269.932, 234.399 269.937, 195 271.061" stroke="none" fill="#000000" fill-rule="evenodd"/>
</svg>